<svg xmlns="http://www.w3.org/2000/svg" xmlns:xlink="http://www.w3.org/1999/xlink">

    <symbol id="icon-cross" viewBox="0 0 32 32">
        <path d="M22.8353 22.3639L22.3638 22.8353C22.1035 23.0956 21.6814 23.0956 21.421 22.8353L15.9999 17.4141L10.5787 22.8352C10.3184 23.0956 9.89626 23.0956 9.63591 22.8352L9.1645 22.3638C8.90415 22.1035 8.90415 21.6814 9.1645 21.421L14.5857 15.9999L9.1645 10.5787C8.90415 10.3184 8.90415 9.89626 9.1645 9.63591L9.6359 9.16451C9.89625 8.90416 10.3184 8.90416 10.5787 9.16451L15.9999 14.5857L21.421 9.1645C21.6814 8.90415 22.1035 8.90415 22.3638 9.1645L22.8353 9.6359C23.0956 9.89625 23.0956 10.3184 22.8353 10.5787L17.4141 15.9999L22.8353 21.421C23.0956 21.6814 23.0956 22.1035 22.8353 22.3639Z" fill="white"/>
    </symbol>

    <symbol id="icon-chevron-down" viewBox="0 0 10 7">
        <path d="M8.82812 0.148438L10 1.32031L5 6.32031L0 1.32031L1.17188 0.148438L5 3.97656L8.82812 0.148438Z" fill="#222222"/>
    </symbol>

    <symbol id="icon-shopping-bag" viewBox="0 0 14 18">
        <path d="M12 4H10.3203C10.3203 3.375 10.1641 2.8151 9.85156 2.32031C9.5651 1.82552 9.17448 1.4349 8.67969 1.14844C8.1849 0.835938 7.625 0.679688 7 0.679688C6.375 0.679688 5.8151 0.835938 5.32031 1.14844C4.82552 1.4349 4.42188 1.82552 4.10938 2.32031C3.82292 2.8151 3.67969 3.375 3.67969 4H2C1.53125 4 1.1276 4.16927 0.789062 4.50781C0.476562 4.82031 0.320312 5.21094 0.320312 5.67969V15.6797C0.320312 16.1224 0.476562 16.513 0.789062 16.8516C1.1276 17.1641 1.53125 17.3203 2 17.3203H12C12.4688 17.3203 12.8594 17.1641 13.1719 16.8516C13.5104 16.513 13.6797 16.1224 13.6797 15.6797V5.67969C13.6797 5.21094 13.5104 4.82031 13.1719 4.50781C12.8594 4.16927 12.4688 4 12 4ZM5.32031 7.32031C5.32031 7.55469 5.24219 7.76302 5.08594 7.94531C4.92969 8.10156 4.73438 8.17969 4.5 8.17969C4.26562 8.17969 4.07031 8.10156 3.91406 7.94531C3.75781 7.76302 3.67969 7.55469 3.67969 7.32031V5.67969H5.32031V7.32031ZM7 2.32031C7.46875 2.32031 7.85938 2.48958 8.17188 2.82812C8.51042 3.14062 8.67969 3.53125 8.67969 4H5.32031C5.32031 3.53125 5.47656 3.14062 5.78906 2.82812C6.1276 2.48958 6.53125 2.32031 7 2.32031ZM10.3203 7.32031C10.3203 7.55469 10.2422 7.76302 10.0859 7.94531C9.92969 8.10156 9.73438 8.17969 9.5 8.17969C9.26562 8.17969 9.07031 8.10156 8.91406 7.94531C8.75781 7.76302 8.67969 7.55469 8.67969 7.32031V5.67969H10.3203V7.32031Z"/>
    </symbol>

    <symbol id="icon-chevron-right" viewBox="0 0 6 8">
        <path d="M1.65625 0L5.65625 4L1.65625 8L0.71875 7.0625L3.78125 4L0.71875 0.9375L1.65625 0Z" fill="#2A2C1F"/>
    </symbol>

    <symbol id="icon-search" viewBox="0 0 16 16">
        <path d="M3.27344 8.58594C4.0026 9.3151 4.88802 9.67969 5.92969 9.67969C6.97135 9.67969 7.85677 9.3151 8.58594 8.58594C9.3151 7.85677 9.67969 6.97135 9.67969 5.92969C9.67969 4.88802 9.3151 4.0026 8.58594 3.27344C7.85677 2.54427 6.97135 2.17969 5.92969 2.17969C4.88802 2.17969 4.0026 2.54427 3.27344 3.27344C2.54427 4.0026 2.17969 4.88802 2.17969 5.92969C2.17969 6.97135 2.54427 7.85677 3.27344 8.58594ZM10.9297 9.67969L15.0703 13.8203L13.8203 15.0703L9.67969 10.9297V10.2656L9.44531 10.0312C8.45573 10.8906 7.28385 11.3203 5.92969 11.3203C4.41927 11.3203 3.13021 10.7995 2.0625 9.75781C1.02083 8.71615 0.5 7.4401 0.5 5.92969C0.5 4.41927 1.02083 3.14323 2.0625 2.10156C3.13021 1.03385 4.41927 0.5 5.92969 0.5C7.4401 0.5 8.71615 1.03385 9.75781 2.10156C10.7995 3.14323 11.3203 4.41927 11.3203 5.92969C11.3203 6.47656 11.1901 7.10156 10.9297 7.80469C10.6693 8.48177 10.3698 9.02865 10.0312 9.44531L10.2656 9.67969H10.9297Z" fill="#2A2C1F"/>
    </symbol>

    <symbol id="icon-house" viewBox="0 0 48 48">
        <path d="M0 8C0 3.58172 3.58172 0 8 0H40C44.4183 0 48 3.58172 48 8V40C48 44.4183 44.4183 48 40 48H8C3.58172 48 0 44.4183 0 40V8Z" fill="#FAE8E1"/>
        <path d="M21.3125 21.3125H26.6875C26.6875 20.6042 26.4167 20 25.875 19.5C25.3333 18.9583 24.7083 18.6875 24 18.6875C23.2917 18.6875 22.6667 18.9583 22.125 19.5C21.5833 20 21.3125 20.6042 21.3125 21.3125ZM33.3125 20.375L37.3125 24H33.3125V34.6875H26.6875V26.6875H21.3125V34.6875H14.6875V24H10.6875L24 12L29.3125 16.8125V13.3125H33.3125V20.375Z" fill="#CF6F49"/>
    </symbol>

    <symbol id="icon-receipt" viewBox="0 0 48 48">
        <path d="M0 8C0 3.58172 3.58172 0 8 0H40C44.4183 0 48 3.58172 48 8V40C48 44.4183 44.4183 48 40 48H8C3.58172 48 0 44.4183 0 40V8Z" fill="#FAE8E1"/>
        <path d="M12 37.3125V10.6875L14 12.6875L16 10.6875L18 12.6875L20 10.6875L22 12.6875L24 10.6875L26 12.6875L28 10.6875L30 12.6875L32 10.6875L34 12.6875L36 10.6875V37.3125L34 35.3125L32 37.3125L30 35.3125L28 37.3125L26 35.3125L24 37.3125L22 35.3125L20 37.3125L18 35.3125L16 37.3125L14 35.3125L12 37.3125ZM32 20V17.3125H16V20H32ZM32 25.3125V22.6875H16V25.3125H32ZM32 30.6875V28H16V30.6875H32Z" fill="#CF6F49"/>
    </symbol>

    <symbol id="icon-key" viewBox="0 0 48 48">
        <path d="M0 8C0 3.58172 3.58172 0 8 0H40C44.4183 0 48 3.58172 48 8V40C48 44.4183 44.4183 48 40 48H8C3.58172 48 0 44.4183 0 40V8Z" fill="#FAE8E1"/>
        <path d="M36 21.3125H24.875C24.5 20.2708 23.9375 19.3542 23.1875 18.5625C22.4792 17.7708 21.6042 17.1458 20.5625 16.6875C19.5625 16.2292 18.4792 16 17.3125 16C15.8542 16 14.5208 16.375 13.3125 17.125C12.1042 17.8333 11.125 18.7917 10.375 20C9.66667 21.2083 9.3125 22.5417 9.3125 24C9.3125 25.4583 9.66667 26.7917 10.375 28C11.125 29.2083 12.1042 30.1875 13.3125 30.9375C14.5208 31.6458 15.8542 32 17.3125 32C18.4792 32 19.5625 31.7708 20.5625 31.3125C21.6042 30.8542 22.4792 30.2292 23.1875 29.4375C23.9375 28.6458 24.5 27.7292 24.875 26.6875H25.3125L28 29.3125L30.6875 26.6875L33.3125 29.3125L38.6875 23.9375L36 21.3125ZM17.3125 28C16.6042 28 15.9375 27.8333 15.3125 27.5C14.7292 27.125 14.25 26.6458 13.875 26.0625C13.5 25.4375 13.3125 24.75 13.3125 24C13.3125 23.25 13.5 22.5833 13.875 22C14.25 21.375 14.7292 20.8958 15.3125 20.5625C15.9375 20.1875 16.6042 20 17.3125 20C18.0625 20 18.7292 20.1875 19.3125 20.5625C19.9375 20.8958 20.4167 21.375 20.75 22C21.125 22.5833 21.3125 23.25 21.3125 24C21.3125 24.75 21.125 25.4375 20.75 26.0625C20.4167 26.6458 19.9375 27.125 19.3125 27.5C18.7292 27.8333 18.0625 28 17.3125 28Z" fill="#CF6F49"/>
    </symbol>

    <symbol id="icon-payments" viewBox="0 0 48 48">
        <path d="M0 8C0 3.58172 3.58172 0 8 0H40C44.4183 0 48 3.58172 48 8V40C48 44.4183 44.4183 48 40 48H8C3.58172 48 0 44.4183 0 40V8Z" fill="#FAE8E1"/>
        <path d="M33.3125 26.6875V16C33.3125 15.25 33.0417 14.625 32.5 14.125C32 13.5833 31.3958 13.3125 30.6875 13.3125H12C11.25 13.3125 10.6042 13.5833 10.0625 14.125C9.5625 14.625 9.3125 15.25 9.3125 16V26.6875C9.3125 27.3958 9.5625 28.0208 10.0625 28.5625C10.6042 29.0625 11.25 29.3125 12 29.3125H30.6875C31.3958 29.3125 32 29.0625 32.5 28.5625C33.0417 28.0208 33.3125 27.3958 33.3125 26.6875ZM21.3125 25.3125C20.6042 25.3125 19.9375 25.1458 19.3125 24.8125C18.7292 24.4375 18.25 23.9583 17.875 23.375C17.5 22.75 17.3125 22.0625 17.3125 21.3125C17.3125 20.6042 17.5 19.9583 17.875 19.375C18.25 18.75 18.7292 18.25 19.3125 17.875C19.9375 17.5 20.6042 17.3125 21.3125 17.3125C22.0625 17.3125 22.7292 17.5 23.3125 17.875C23.9375 18.25 24.4167 18.75 24.75 19.375C25.125 19.9583 25.3125 20.6042 25.3125 21.3125C25.3125 22.0625 25.125 22.75 24.75 23.375C24.4167 23.9583 23.9375 24.4375 23.3125 24.8125C22.7292 25.1458 22.0625 25.3125 21.3125 25.3125ZM38.6875 17.3125V32C38.6875 32.75 38.4167 33.3958 37.875 33.9375C37.375 34.4375 36.75 34.6875 36 34.6875H13.3125V32H36V17.3125H38.6875Z" fill="#CF6F49"/>
    </symbol>

    <symbol id="icon-file" viewBox="0 0 48 48">
        <path d="M0 8C0 3.58172 3.58172 0 8 0H40C44.4183 0 48 3.58172 48 8V40C48 44.4183 44.4183 48 40 48H8C3.58172 48 0 44.4183 0 40V8Z" fill="#FAE8E1"/>
        <path d="M25.3125 20H32.6875L25.3125 12.6875V20ZM29.3125 26.6875V24H18.6875V26.6875H29.3125ZM29.3125 32V29.3125H18.6875V32H29.3125ZM26.6875 10.6875L34.6875 18.6875V34.6875C34.6875 35.3958 34.4167 36.0208 33.875 36.5625C33.3333 37.0625 32.7083 37.3125 32 37.3125H16C15.2917 37.3125 14.6667 37.0625 14.125 36.5625C13.5833 36.0208 13.3125 35.3958 13.3125 34.6875L13.375 13.3125C13.375 12.6042 13.625 12 14.125 11.5C14.6667 10.9583 15.2917 10.6875 16 10.6875H26.6875Z" fill="#CF6F49"/>
    </symbol>

    <symbol id="icon-family" viewBox="0 0 48 48">
        <path d="M0 8C0 3.58172 3.58172 0 8 0H40C44.4183 0 48 3.58172 48 8V40C48 44.4183 44.4183 48 40 48H8C3.58172 48 0 44.4183 0 40V8Z" fill="white"/>
        <path d="M29.3125 13.3125C29.3125 12.6042 29.5625 12 30.0625 11.5C30.6042 10.9583 31.25 10.6875 32 10.6875C32.75 10.6875 33.375 10.9583 33.875 11.5C34.4167 12 34.6875 12.6042 34.6875 13.3125C34.6875 14.0625 34.4167 14.7083 33.875 15.25C33.375 15.75 32.75 16 32 16C31.25 16 30.6042 15.75 30.0625 15.25C29.5625 14.7083 29.3125 14.0625 29.3125 13.3125ZM34.6875 37.3125V29.3125H38L34.625 19.1875C34.4167 18.6042 34.0833 18.1458 33.625 17.8125C33.1667 17.4792 32.6458 17.3125 32.0625 17.3125H31.9375C31.3542 17.3125 30.8333 17.4792 30.375 17.8125C29.9167 18.1458 29.5833 18.6042 29.375 19.1875L28.25 22.625C28.9583 23 29.5417 23.5625 30 24.3125C30.4583 25.0208 30.6875 25.8125 30.6875 26.6875V37.3125H34.6875ZM24.6875 23.3125C25.2292 23.3125 25.6875 23.125 26.0625 22.75C26.4792 22.375 26.6875 21.8958 26.6875 21.3125C26.6875 20.7708 26.4792 20.3125 26.0625 19.9375C25.6875 19.5208 25.2292 19.3125 24.6875 19.3125C24.1042 19.3125 23.625 19.5208 23.25 19.9375C22.875 20.3125 22.6875 20.7708 22.6875 21.3125C22.6875 21.8958 22.875 22.375 23.25 22.75C23.625 23.125 24.1042 23.3125 24.6875 23.3125ZM15.3125 16C16.0625 16 16.6875 15.75 17.1875 15.25C17.7292 14.7083 18 14.0625 18 13.3125C18 12.6042 17.7292 12 17.1875 11.5C16.6875 10.9583 16.0625 10.6875 15.3125 10.6875C14.6042 10.6875 13.9792 10.9583 13.4375 11.5C12.9375 12 12.6875 12.6042 12.6875 13.3125C12.6875 14.0625 12.9375 14.7083 13.4375 15.25C13.9792 15.75 14.6042 16 15.3125 16ZM18 37.3125V28H20V20C20 19.25 19.7292 18.625 19.1875 18.125C18.6875 17.5833 18.0625 17.3125 17.3125 17.3125H13.3125C12.6042 17.3125 11.9792 17.5833 11.4375 18.125C10.9375 18.625 10.6875 19.25 10.6875 20V28H12.6875V37.3125H18ZM26.6875 37.3125V32H28V26.6875C28 26.1458 27.7917 25.6875 27.375 25.3125C27 24.8958 26.5417 24.6875 26 24.6875H23.3125C22.7708 24.6875 22.2917 24.8958 21.875 25.3125C21.5 25.6875 21.3125 26.1458 21.3125 26.6875V32H22.6875V37.3125H26.6875Z" fill="#65665C"/>
    </symbol>

    <symbol id="icon-facebook" viewBox="0 0 24 24">
        <path d="M16.5 6H13.5C12.9477 6 12.5 6.44772 12.5 7V10H16.5C16.6137 9.99748 16.7216 10.0504 16.7892 10.1419C16.8568 10.2334 16.8758 10.352 16.84 10.46L16.1 12.66C16.0318 12.8619 15.8431 12.9984 15.63 13H12.5V20.5C12.5 20.7761 12.2761 21 12 21H9.5C9.22386 21 9 20.7761 9 20.5V13H7.5C7.22386 13 7 12.7761 7 12.5V10.5C7 10.2239 7.22386 10 7.5 10H9V7C9 4.79086 10.7909 3 13 3H16.5C16.7761 3 17 3.22386 17 3.5V5.5C17 5.77614 16.7761 6 16.5 6Z"/>
    </symbol>

    <symbol id="icon-instagram" viewBox="0 0 24 24">
        <path fill-rule="evenodd" clip-rule="evenodd" d="M16 3H8C5.23858 3 3 5.23858 3 8V16C3 18.7614 5.23858 21 8 21H16C18.7614 21 21 18.7614 21 16V8C21 5.23858 18.7614 3 16 3ZM19.25 16C19.2445 17.7926 17.7926 19.2445 16 19.25H8C6.20735 19.2445 4.75549 17.7926 4.75 16V8C4.75549 6.20735 6.20735 4.75549 8 4.75H16C17.7926 4.75549 19.2445 6.20735 19.25 8V16ZM16.75 8.25C17.3023 8.25 17.75 7.80228 17.75 7.25C17.75 6.69772 17.3023 6.25 16.75 6.25C16.1977 6.25 15.75 6.69772 15.75 7.25C15.75 7.80228 16.1977 8.25 16.75 8.25ZM12 7.5C9.51472 7.5 7.5 9.51472 7.5 12C7.5 14.4853 9.51472 16.5 12 16.5C14.4853 16.5 16.5 14.4853 16.5 12C16.5027 10.8057 16.0294 9.65957 15.1849 8.81508C14.3404 7.97059 13.1943 7.49734 12 7.5ZM9.25 12C9.25 13.5188 10.4812 14.75 12 14.75C13.5188 14.75 14.75 13.5188 14.75 12C14.75 10.4812 13.5188 9.25 12 9.25C10.4812 9.25 9.25 10.4812 9.25 12Z"/>
    </symbol>

    <symbol id="icon-twitter" viewBox="0 0 24 24">
        <path d="M20.9727 6.7174C20.5083 7.33692 19.9469 7.87733 19.3102 8.31776C19.3102 8.47959 19.3102 8.64142 19.3102 8.81225C19.3153 11.7511 18.1414 14.5691 16.0517 16.6345C13.9619 18.6999 11.1311 19.8399 8.19393 19.7989C6.49587 19.8046 4.81955 19.4169 3.2963 18.6661C3.21416 18.6302 3.16119 18.549 3.1615 18.4593V18.3604C3.1615 18.2313 3.26611 18.1267 3.39515 18.1267C5.0643 18.0716 6.6739 17.4929 7.99622 16.4724C6.48541 16.4419 5.12607 15.5469 4.50048 14.1707C4.46889 14.0956 4.47872 14.0093 4.52645 13.9432C4.57417 13.8771 4.65288 13.8407 4.73413 13.8471C5.1933 13.8932 5.65706 13.8505 6.10008 13.7212C4.43227 13.375 3.17909 11.9904 2.99974 10.2957C2.99337 10.2144 3.0298 10.1357 3.09588 10.0879C3.16195 10.0402 3.24812 10.0303 3.32326 10.062C3.77082 10.2595 4.25397 10.3635 4.74312 10.3676C3.28172 9.40846 2.65049 7.58405 3.20643 5.92622C3.26382 5.76513 3.40169 5.64612 3.56938 5.61294C3.73706 5.57975 3.90984 5.63728 4.0242 5.76439C5.99627 7.86325 8.70592 9.11396 11.5818 9.25279C11.5082 8.95885 11.472 8.65676 11.474 8.35372C11.5009 6.76472 12.4841 5.34921 13.9633 4.76987C15.4424 4.19054 17.1248 4.56203 18.2229 5.71044C18.9713 5.56785 19.6949 5.31645 20.3706 4.96421C20.4201 4.93331 20.4829 4.93331 20.5324 4.96421C20.5633 5.01373 20.5633 5.07652 20.5324 5.12604C20.2051 5.87552 19.6522 6.50412 18.9508 6.92419C19.565 6.85296 20.1684 6.70807 20.7481 6.49264C20.7969 6.45942 20.861 6.45942 20.9098 6.49264C20.9507 6.51134 20.9813 6.54711 20.9934 6.59042C21.0055 6.63373 20.9979 6.68018 20.9727 6.7174Z"/>
    </symbol>

    <symbol id="icon-linkedin" viewBox="0 0 24 24">
        <path fill-rule="evenodd" clip-rule="evenodd" d="M5 3H19C20.1046 3 21 3.89543 21 5V19C21 20.1046 20.1046 21 19 21H5C3.89543 21 3 20.1046 3 19V5C3 3.89543 3.89543 3 5 3ZM8 18C8.27614 18 8.5 17.7761 8.5 17.5V10.5C8.5 10.2239 8.27614 10 8 10H6.5C6.22386 10 6 10.2239 6 10.5V17.5C6 17.7761 6.22386 18 6.5 18H8ZM7.25 9C6.42157 9 5.75 8.32843 5.75 7.5C5.75 6.67157 6.42157 6 7.25 6C8.07843 6 8.75 6.67157 8.75 7.5C8.75 8.32843 8.07843 9 7.25 9ZM17.5 18C17.7761 18 18 17.7761 18 17.5V12.9C18.0325 11.3108 16.8576 9.95452 15.28 9.76C14.177 9.65925 13.1083 10.1744 12.5 11.1V10.5C12.5 10.2239 12.2761 10 12 10H10.5C10.2239 10 10 10.2239 10 10.5V17.5C10 17.7761 10.2239 18 10.5 18H12C12.2761 18 12.5 17.7761 12.5 17.5V13.75C12.5 12.9216 13.1716 12.25 14 12.25C14.8284 12.25 15.5 12.9216 15.5 13.75V17.5C15.5 17.7761 15.7239 18 16 18H17.5Z"/>
    </symbol>

</svg>